<svg width="24" height="24" viewBox="0 0 24 24" fill="none" xmlns="http://www.w3.org/2000/svg">
<path fill-rule="evenodd" clip-rule="evenodd" d="M6 6H18L18 14H6V6ZM18 4H6C4.89543 4 4 4.89543 4 6V14C4 15.1046 4.89543 16 6 16H18C19.1046 16 20 15.1046 20 14V6C20 4.89543 19.1046 4 18 4ZM12 17C12.2761 17 12.5 17.2239 12.5 17.5V19H16.5C16.7761 19 17 19.2239 17 19.5C17 19.7761 16.7761 20 16.5 20H7.5C7.22386 20 7 19.7761 7 19.5C7 19.2239 7.22386 19 7.5 19H11.5V17.5C11.5 17.2239 11.7239 17 12 17Z" fill="#CC0000"/>
</svg>
