<svg width="16" height="16" viewBox="0 0 16 16" fill="none" xmlns="http://www.w3.org/2000/svg">
<path fill-rule="evenodd" clip-rule="evenodd" d="M2 2H14L14 10H2V2ZM14 0H2C0.895431 0 0 0.895431 0 2V10C0 11.1046 0.895431 12 2 12H14C15.1046 12 16 11.1046 16 10V2C16 0.895431 15.1046 0 14 0ZM8 13C8.27614 13 8.5 13.2239 8.5 13.5V15H12.5C12.7761 15 13 15.2239 13 15.5C13 15.7761 12.7761 16 12.5 16H3.5C3.22386 16 3 15.7761 3 15.5C3 15.2239 3.22386 15 3.5 15H7.5V13.5C7.5 13.2239 7.72386 13 8 13Z" fill="#CC0000"/>
</svg>
