<svg width="24" height="24" viewBox="0 0 24 24" fill="none" xmlns="http://www.w3.org/2000/svg">
<path fill-rule="evenodd" clip-rule="evenodd" d="M11.9129 5.617C11.9392 5.60126 11.9693 5.59296 12 5.59296C12.0307 5.59296 12.0608 5.60126 12.0872 5.617C12.1135 5.63268 12.1351 5.65541 12.1497 5.68232L18.3782 17.2495C18.3922 17.2754 18.3991 17.3044 18.3985 17.3338C18.3978 17.3632 18.3895 17.3919 18.3744 17.4172C18.3594 17.4424 18.338 17.4633 18.3124 17.4778C18.2869 17.4923 18.258 17.5 18.2286 17.5H5.77149C5.74209 17.5 5.7132 17.4923 5.68763 17.4778C5.66207 17.4633 5.6407 17.4424 5.62562 17.4172C5.61055 17.3919 5.60227 17.3632 5.60161 17.3338C5.60094 17.3045 5.60795 17.2753 5.62183 17.2495L11.8505 5.68208C11.8651 5.65517 11.8866 5.63268 11.9129 5.617ZM3.60212 17.3791C3.59362 17.0039 3.68256 16.633 3.86025 16.3025L10.0897 4.73364C10.2755 4.38878 10.5512 4.10065 10.8875 3.89983C11.2239 3.699 11.6083 3.59296 12 3.59296C12.3918 3.59296 12.7762 3.699 13.1125 3.89983C13.4489 4.10065 13.7247 4.38902 13.9105 4.73387L20.1398 16.3025C20.3175 16.633 20.4064 17.0039 20.398 17.3791C20.3895 17.7543 20.2838 18.1208 20.0914 18.4429C19.8989 18.7651 19.6262 19.0318 19.2999 19.2171C18.9735 19.4023 18.6043 19.4998 18.229 19.5H5.77059C5.39534 19.4998 5.02654 19.4023 4.70021 19.2171C4.37388 19.0318 4.10117 18.7651 3.90871 18.4429C3.71625 18.1208 3.61061 17.7543 3.60212 17.3791ZM12 7.99998C12.2761 7.99998 12.5 8.22384 12.5 8.49998V13.5C12.5 13.7761 12.2761 14 12 14C11.7239 14 11.5 13.7761 11.5 13.5V8.49998C11.5 8.22384 11.7239 7.99998 12 7.99998ZM12 17C12.5523 17 13 16.5523 13 16C13 15.4477 12.5523 15 12 15C11.4477 15 11 15.4477 11 16C11 16.5523 11.4477 17 12 17Z" fill="#CC0000"/>
</svg>
