<svg width="18" height="17" viewBox="0 0 18 17" fill="none" xmlns="http://www.w3.org/2000/svg">
<path fill-rule="evenodd" clip-rule="evenodd" d="M7 1H11C11.5523 1 12 1.44772 12 2V4H6V2C6 1.44772 6.44772 1 7 1ZM5 4V2C5 0.89543 5.89543 0 7 0H11C12.1046 0 13 0.895431 13 2V4H15C16.6569 4 18 5.34315 18 7V14C18 15.6569 16.6569 17 15 17H11H7H3C1.34315 17 0 15.6569 0 14V7C0 5.34315 1.34315 4 3 4H5ZM5 15H3C2.44772 15 2 14.5523 2 14V7C2 6.44772 2.44772 6 3 6H5V15ZM6 15V6H12V15H6ZM13 15H15C15.5523 15 16 14.5523 16 14V7C16 6.44772 15.5523 6 15 6H13V15Z" fill="#CC0000"/>
</svg>
