<svg width="24" height="24" viewBox="0 0 24 24" fill="none" xmlns="http://www.w3.org/2000/svg">
<path fill-rule="evenodd" clip-rule="evenodd" d="M10 5H14C14.5523 5 15 5.44772 15 6V8H9V6C9 5.44772 9.44772 5 10 5ZM8 8V6C8 4.89543 8.89543 4 10 4H14C15.1046 4 16 4.89543 16 6V8H18C19.6569 8 21 9.34315 21 11V18C21 19.6569 19.6569 21 18 21H14H10H6C4.34315 21 3 19.6569 3 18V11C3 9.34315 4.34315 8 6 8H8ZM8 19H6C5.44772 19 5 18.5523 5 18V11C5 10.4477 5.44772 10 6 10H8V19ZM9 19V10H15V19H9ZM16 19H18C18.5523 19 19 18.5523 19 18V11C19 10.4477 18.5523 10 18 10H16V19Z" fill="#CC0000"/>
</svg>
