<svg width="18" height="18" viewBox="0 0 18 18" fill="none" xmlns="http://www.w3.org/2000/svg">
<path fill-rule="evenodd" clip-rule="evenodd" d="M9 2C5.13401 2 2 5.13401 2 9C2 12.866 5.13401 16 9 16C12.866 16 16 12.866 16 9C16 5.13401 12.866 2 9 2ZM0 9C0 4.02944 4.02944 0 9 0C13.9706 0 18 4.02944 18 9C18 13.9706 13.9706 18 9 18C4.02944 18 0 13.9706 0 9Z" fill="#CC0000"/>
<path fill-rule="evenodd" clip-rule="evenodd" d="M9 6C7.34315 6 6 7.34315 6 9C6 10.6569 7.34315 12 9 12C10.6569 12 12 10.6569 12 9C12 7.34315 10.6569 6 9 6ZM5 9C5 6.79086 6.79086 5 9 5C11.2091 5 13 6.79086 13 9C13 11.2091 11.2091 13 9 13C6.79086 13 5 11.2091 5 9Z" fill="#CC0000"/>
<path fill-rule="evenodd" clip-rule="evenodd" d="M14.6566 3.34344C14.8518 3.5387 14.8518 3.85528 14.6566 4.05054L11.8276 6.87954C11.6323 7.07481 11.3157 7.07481 11.1204 6.87954C10.9252 6.68428 10.9252 6.3677 11.1204 6.17244L13.9494 3.34344C14.1447 3.14818 14.4613 3.14818 14.6566 3.34344Z" fill="#CC0000"/>
<path fill-rule="evenodd" clip-rule="evenodd" d="M11.1204 11.1204C11.3157 10.9252 11.6323 10.9252 11.8276 11.1204L14.6566 13.9494C14.8518 14.1447 14.8518 14.4613 14.6566 14.6566C14.4613 14.8518 14.1447 14.8518 13.9494 14.6566L11.1204 11.8276C10.9252 11.6323 10.9252 11.3157 11.1204 11.1204Z" fill="#CC0000"/>
<path fill-rule="evenodd" clip-rule="evenodd" d="M6.87955 11.1204C7.07482 11.3157 7.07482 11.6323 6.87955 11.8276L4.05055 14.6566C3.85529 14.8518 3.53871 14.8518 3.34345 14.6566C3.14818 14.4613 3.14818 14.1447 3.34345 13.9494L6.17245 11.1204C6.36771 10.9252 6.68429 10.9252 6.87955 11.1204Z" fill="#CC0000"/>
<path fill-rule="evenodd" clip-rule="evenodd" d="M3.34345 3.34344C3.53871 3.14818 3.85529 3.14818 4.05055 3.34344L6.87955 6.17244C7.07482 6.3677 7.07482 6.68428 6.87955 6.87954C6.68429 7.07481 6.36771 7.07481 6.17245 6.87954L3.34345 4.05054C3.14818 3.85528 3.14818 3.5387 3.34345 3.34344Z" fill="#CC0000"/>
</svg>
