<svg width="24" height="24" viewBox="0 0 24 24" fill="none" xmlns="http://www.w3.org/2000/svg">
<path fill-rule="evenodd" clip-rule="evenodd" d="M12 20C7.6 20 4 16.4 4 12C4 7.6 7.6 4 12 4C16.4 4 20 7.6 20 12C20 16.4 16.4 20 12 20ZM12 6C8.7 6 6 8.7 6 12C6 15.3 8.7 18 12 18C15.3 18 18 15.3 18 12C18 8.7 15.3 6 12 6ZM8.19996 12C8.49996 11.2 9.79996 11 10.4 11.3C10.6237 11.4119 10.8335 11.4403 11.0397 11.4683C11.3867 11.5153 11.7237 11.561 12.1 12C12.2883 12.2637 12.4767 12.3997 12.6437 12.5203C12.9199 12.7196 13.1376 12.8768 13.2 13.5C13.2815 14.3155 12.3654 15.6632 11.8619 16.4038L11.8619 16.4038C11.7481 16.5713 11.6553 16.7078 11.6 16.8C11.2 17.3 10.2 16.7 10.2 15.3C10.2 13.9658 9.56421 13.8123 9.15824 13.7142C9.13822 13.7094 9.11876 13.7047 9.09996 13.7C9.03652 13.6746 8.96504 13.6509 8.88979 13.6258L8.88977 13.6258C8.37195 13.4537 7.67609 13.2224 8.19996 12ZM10.8999 8.09999C10.4999 7.99999 10.6999 7.49999 10.6999 7.49999C11.3711 7.16441 11.9071 7.27929 12.4289 7.39113C12.6846 7.44593 12.9368 7.49999 13.1999 7.49999C13.5999 7.49999 13.9999 7.49999 14.3999 7.59999C15.8999 8.49999 16.9999 10.1 16.9999 12C16.9999 12.4 16.8999 12.8 16.7999 13.2C16.6929 13.1643 16.5603 13.014 16.4069 12.84C16.1303 12.5264 15.7858 12.1357 15.3999 12.2C15.1039 12.2423 14.9151 12.0342 14.7051 11.8026C14.4186 11.4866 14.0924 11.1269 13.3999 11.3C12.4999 11.5 12.0999 11.2 12.1999 10.7C12.2328 10.5027 12.3089 10.3163 12.382 10.1371C12.5314 9.77122 12.6684 9.43561 12.3999 9.09999C12.3473 9.03425 12.2999 8.97197 12.255 8.91291C11.958 8.52283 11.7684 8.2737 10.8999 8.09999Z" fill="#CC0000"/>
</svg>
