<svg width="16" height="16" viewBox="0 0 16 16" fill="none" xmlns="http://www.w3.org/2000/svg">
<path fill-rule="evenodd" clip-rule="evenodd" d="M8 16C3.6 16 0 12.4 0 8C0 3.6 3.6 0 8 0C12.4 0 16 3.6 16 8C16 12.4 12.4 16 8 16ZM8 2C4.7 2 2 4.7 2 8C2 11.3 4.7 14 8 14C11.3 14 14 11.3 14 8C14 4.7 11.3 2 8 2ZM4.19996 8C4.49996 7.2 5.79996 7 6.39996 7.3C6.62367 7.41186 6.83347 7.4403 7.03974 7.46827C7.38671 7.51531 7.72367 7.56099 8.09996 8C8.28835 8.26374 8.47673 8.39972 8.64372 8.52026C8.91995 8.71964 9.13764 8.87677 9.19996 9.5C9.28151 10.3155 8.36542 11.6632 7.86195 12.4038L7.86193 12.4038C7.74806 12.5713 7.6553 12.7078 7.59996 12.8C7.19996 13.3 6.19996 12.7 6.19996 11.3C6.19996 9.9658 5.56421 9.81227 5.15824 9.71424C5.13822 9.7094 5.11876 9.7047 5.09996 9.7C5.03652 9.67463 4.96504 9.65086 4.88979 9.62585L4.88977 9.62584C4.37195 9.4537 3.67609 9.22236 4.19996 8ZM6.8999 4.09999C6.4999 3.99999 6.6999 3.49999 6.6999 3.49999C7.37107 3.16441 7.9071 3.27929 8.42893 3.39113C8.68459 3.44593 8.93684 3.49999 9.1999 3.49999C9.5999 3.49999 9.9999 3.49999 10.3999 3.59999C11.8999 4.49999 12.9999 6.09999 12.9999 7.99999C12.9999 8.39999 12.8999 8.79999 12.7999 9.19999C12.6929 9.16431 12.5603 9.01403 12.4069 8.84003C12.1303 8.5264 11.7858 8.13568 11.3999 8.19999C11.1039 8.24229 10.9151 8.03416 10.7051 7.80257C10.4186 7.48657 10.0924 7.12687 9.3999 7.29999C8.4999 7.49999 8.0999 7.19999 8.1999 6.69999C8.23278 6.50273 8.30889 6.31628 8.38204 6.13708C8.53139 5.77122 8.66839 5.43561 8.3999 5.09999C8.34731 5.03425 8.2999 4.97197 8.25495 4.91291C7.95805 4.52283 7.76842 4.2737 6.8999 4.09999Z" fill="#CC0000"/>
</svg>
