<svg width="16" height="20" viewBox="0 0 16 20" fill="none" xmlns="http://www.w3.org/2000/svg">
<path fill-rule="evenodd" clip-rule="evenodd" d="M3 15.5C3 15.2239 3.22386 15 3.5 15H12.5C12.7761 15 13 15.2239 13 15.5C13 15.7761 12.7761 16 12.5 16H3.5C3.22386 16 3 15.7761 3 15.5Z" fill="#CC0000"/>
<path fill-rule="evenodd" clip-rule="evenodd" d="M2.92308 0H13.0769C14.953 0 16 1.65422 16 3.06667V16.9333C16 18.3458 14.953 20 13.0769 20H2.92308C1.04704 20 0 18.3458 0 16.9333V3.06667C0 1.65422 1.04704 0 2.92308 0ZM2.92308 2H13.0769C13.5867 2 14 2.47756 14 3.06667V16.9333C14 17.5224 13.5867 18 13.0769 18H2.92308C2.41328 18 2 17.5224 2 16.9333V3.06667C2 2.47756 2.41328 2 2.92308 2Z" fill="#CC0000"/>
</svg>
