<svg width="24" height="24" viewBox="0 0 24 24" fill="none" xmlns="http://www.w3.org/2000/svg">
<path fill-rule="evenodd" clip-rule="evenodd" d="M4 5C4 3.89543 4.89543 3 6 3H18C19.1046 3 20 3.89543 20 5V19C20 20.1046 19.1046 21 18 21H6C4.89543 21 4 20.1046 4 19V5ZM18 5V19H6V5H18Z" fill="#CC0000"/>
<path fill-rule="evenodd" clip-rule="evenodd" d="M8 7.5C8 7.22386 8.22386 7 8.5 7H15.5C15.7761 7 16 7.22386 16 7.5C16 7.77614 15.7761 8 15.5 8H8.5C8.22386 8 8 7.77614 8 7.5Z" fill="#CC0000"/>
<path fill-rule="evenodd" clip-rule="evenodd" d="M8 10.5C8 10.2239 8.22386 10 8.5 10H15.5C15.7761 10 16 10.2239 16 10.5C16 10.7761 15.7761 11 15.5 11H8.5C8.22386 11 8 10.7761 8 10.5Z" fill="#CC0000"/>
<path fill-rule="evenodd" clip-rule="evenodd" d="M8 13.5C8 13.2239 8.22386 13 8.5 13H15.5C15.7761 13 16 13.2239 16 13.5C16 13.7761 15.7761 14 15.5 14H8.5C8.22386 14 8 13.7761 8 13.5Z" fill="#CC0000"/>
<path fill-rule="evenodd" clip-rule="evenodd" d="M8 16.5C8 16.2239 8.22386 16 8.5 16H11.5C11.7761 16 12 16.2239 12 16.5C12 16.7761 11.7761 17 11.5 17H8.5C8.22386 17 8 16.7761 8 16.5Z" fill="#CC0000"/>
</svg>
