<svg width="24" height="24" viewBox="0 0 24 24" fill="none" xmlns="http://www.w3.org/2000/svg">
<path fill-rule="evenodd" clip-rule="evenodd" d="M17 5C17 4.44772 16.5523 4 16 4C15.4477 4 15 4.44772 15 5V7V9C15 9.55228 15.4477 10 16 10C16.5523 10 17 9.55228 17 9V8H19C19.5523 8 20 7.55228 20 7C20 6.44772 19.5523 6 19 6H17V5ZM4 7C4 6.44772 4.44772 6 5 6H12C12.5523 6 13 6.44772 13 7C13 7.55228 12.5523 8 12 8H5C4.44772 8 4 7.55228 4 7ZM17 15C17 14.4477 16.5523 14 16 14C15.4477 14 15 14.4477 15 15V17V19C15 19.5523 15.4477 20 16 20C16.5523 20 17 19.5523 17 19V18H19C19.5523 18 20 17.5523 20 17C20 16.4477 19.5523 16 19 16H17V15ZM4 17C4 16.4477 4.44772 16 5 16H12C12.5523 16 13 16.4477 13 17C13 17.5523 12.5523 18 12 18H5C4.44772 18 4 17.5523 4 17ZM8 15C7.44771 15 7 14.5523 7 14L7 13H5C4.44771 13 4 12.5523 4 12C4 11.4477 4.44772 11 5 11L7 11L7 10C7 9.44771 7.44772 9 8 9C8.55229 9 9 9.44771 9 10V12L9 14C9 14.5523 8.55228 15 8 15ZM19 13C19.5523 13 20 12.5523 20 12C20 11.4477 19.5523 11 19 11L12 11C11.4477 11 11 11.4477 11 12C11 12.5523 11.4477 13 12 13L19 13Z" fill="black"/>
</svg>
