<svg width="199" height="25" viewBox="0 0 199 25" fill="none" xmlns="http://www.w3.org/2000/svg">
<path d="M6.708 24.2C5.356 24.2 4.12533 23.8273 3.016 23.082C1.90667 22.354 1.092 21.3833 0.572001 20.17H4.68C5.00934 20.43 5.33 20.612 5.642 20.716C5.97133 20.8373 6.32667 20.898 6.708 20.898C7.60933 20.898 8.372 20.6727 8.996 20.222C9.63733 19.7713 9.958 19.156 9.958 18.376V18.35C8.95267 18.922 7.86934 19.208 6.708 19.208C5.49467 19.208 4.368 18.9133 3.328 18.324C2.30533 17.7173 1.49067 16.9027 0.884001 15.88C0.294667 14.84 0 13.7133 0 12.5C0 11.2867 0.294667 10.1687 0.884001 9.14599C1.49067 8.10599 2.30533 7.29132 3.328 6.70199C4.368 6.09532 5.49467 5.79199 6.708 5.79199C7.92134 5.79199 9.03934 6.09532 10.062 6.70199C11.102 7.29132 11.9167 8.10599 12.506 9.14599C13.1127 10.1687 13.416 11.2867 13.416 12.5V17.492C13.416 18.7053 13.1127 19.8233 12.506 20.846C11.9167 21.886 11.102 22.7007 10.062 23.29C9.03934 23.8967 7.92134 24.2 6.708 24.2ZM6.734 15.906C7.68733 15.906 8.476 15.5853 9.1 14.944C9.724 14.2853 10.036 13.4707 10.036 12.5C10.036 11.5293 9.724 10.7233 9.1 10.082C8.476 9.42332 7.68733 9.09399 6.734 9.09399C5.78067 9.09399 4.98333 9.42332 4.342 10.082C3.70067 10.7233 3.38 11.5293 3.38 12.5C3.38 13.4707 3.70067 14.2853 4.342 14.944C4.98333 15.5853 5.78067 15.906 6.734 15.906Z" fill="#CC0000"/>
<path d="M14.9835 19V0.799988H18.3635V19H14.9835Z" fill="#CC0000"/>
<path d="M26.5127 5.79199C27.726 5.79199 28.844 6.09532 29.8667 6.70199C30.9067 7.29132 31.7214 8.10599 32.3107 9.14599C32.9174 10.1687 33.2207 11.2867 33.2207 12.5C33.2207 13.7133 32.9174 14.84 32.3107 15.88C31.7214 16.9027 30.9067 17.7173 29.8667 18.324C28.844 18.9133 27.726 19.208 26.5127 19.208C25.2994 19.208 24.1727 18.9133 23.1327 18.324C22.11 17.7173 21.2954 16.9027 20.6887 15.88C20.0994 14.84 19.8047 13.7133 19.8047 12.5C19.8047 11.2867 20.0994 10.1687 20.6887 9.14599C21.2954 8.10599 22.11 7.29132 23.1327 6.70199C24.1727 6.09532 25.2994 5.79199 26.5127 5.79199ZM26.5387 9.09399C25.5854 9.09399 24.788 9.42332 24.1467 10.082C23.5054 10.7233 23.1847 11.5293 23.1847 12.5C23.1847 13.4707 23.5054 14.2853 24.1467 14.944C24.788 15.5853 25.5854 15.906 26.5387 15.906C27.492 15.906 28.2807 15.5853 28.9047 14.944C29.5287 14.2853 29.8407 13.4707 29.8407 12.5C29.8407 11.5293 29.5287 10.7233 28.9047 10.082C28.2807 9.42332 27.492 9.09399 26.5387 9.09399Z" fill="#CC0000"/>
<path d="M34.6612 0.799988H38.0672V6.77999C38.9859 6.12132 40.0779 5.79199 41.3432 5.79199C42.5566 5.79199 43.6746 6.09532 44.6973 6.70199C45.7199 7.29132 46.5346 8.10599 47.1413 9.14599C47.7479 10.1687 48.0512 11.2867 48.0512 12.5C48.0512 13.7133 47.7479 14.84 47.1413 15.88C46.5346 16.9027 45.7199 17.7173 44.6973 18.324C43.6746 18.9133 42.5566 19.208 41.3432 19.208C40.1299 19.208 39.0119 18.9133 37.9893 18.324C36.9666 17.7173 36.1519 16.9027 35.5452 15.88C34.9559 14.84 34.6612 13.7133 34.6612 12.5V0.799988ZM41.3692 9.09399C40.4159 9.09399 39.6186 9.42332 38.9772 10.082C38.3359 10.7233 38.0153 11.5293 38.0153 12.5C38.0153 13.4707 38.3359 14.2853 38.9772 14.944C39.6186 15.5853 40.4159 15.906 41.3692 15.906C42.3226 15.906 43.1113 15.5853 43.7353 14.944C44.3593 14.2853 44.6712 13.4707 44.6712 12.5C44.6712 11.5293 44.3593 10.7233 43.7353 10.082C43.1113 9.42332 42.3226 9.09399 41.3692 9.09399Z" fill="#CC0000"/>
<path d="M56.0674 19.208C54.854 19.208 53.736 18.9133 52.7134 18.324C51.6907 17.7173 50.876 16.9027 50.2694 15.88C49.6627 14.84 49.3594 13.7133 49.3594 12.5C49.3594 11.2867 49.6627 10.1687 50.2694 9.14599C50.876 8.10599 51.6907 7.29132 52.7134 6.70199C53.736 6.09532 54.854 5.79199 56.0674 5.79199C57.2807 5.79199 58.3987 6.09532 59.4214 6.70199C60.444 7.29132 61.25 8.10599 61.8394 9.14599C62.446 10.1687 62.7494 11.2867 62.7494 12.5V19H59.3694V17.622C59.1787 18.0553 58.7627 18.428 58.1214 18.74C57.48 19.052 56.7954 19.208 56.0674 19.208ZM56.0934 15.906C57.0467 15.906 57.8354 15.5853 58.4594 14.944C59.0834 14.2853 59.3954 13.4707 59.3954 12.5C59.3954 11.5293 59.0834 10.7233 58.4594 10.082C57.8354 9.42332 57.0467 9.09399 56.0934 9.09399C55.14 9.09399 54.3427 9.42332 53.7014 10.082C53.06 10.7233 52.7394 11.5293 52.7394 12.5C52.7394 13.4707 53.06 14.2853 53.7014 14.944C54.3427 15.5853 55.14 15.906 56.0934 15.906Z" fill="#CC0000"/>
<path d="M64.5714 19V0.799988H67.9514V19H64.5714Z" fill="#CC0000"/>
<path d="M79.1473 9.30199V12.864C79.1473 13.904 79.3293 14.6493 79.6933 15.1C80.0573 15.5507 80.6553 15.776 81.4873 15.776V19.078C79.7366 19.078 78.3413 18.5667 77.3013 17.544C76.2786 16.5213 75.7673 14.9613 75.7673 12.864V9.30199H73.8433V5.99999H75.7673V0.825987H79.1473V5.99999H81.4873V9.30199H79.1473Z" fill="white"/>
<path d="M82.4054 12.526C82.4054 11.33 82.6914 10.2207 83.2634 9.19799C83.8527 8.15799 84.6501 7.33465 85.6554 6.72799C86.6781 6.10399 87.7961 5.79199 89.0094 5.79199C90.1187 5.79199 91.1847 6.05199 92.2074 6.57199C93.2301 7.07466 94.0707 7.81132 94.7294 8.78199C95.4054 9.75266 95.7607 10.8967 95.7954 12.214C95.8127 12.7687 95.778 13.306 95.6914 13.826H86.0454C86.2014 14.4673 86.5394 14.9787 87.0594 15.36C87.5967 15.724 88.2467 15.906 89.0094 15.906C89.5467 15.906 89.9801 15.8367 90.3094 15.698C90.6561 15.5593 90.9681 15.3773 91.2454 15.152L95.2754 15.178C94.7381 16.374 93.9147 17.3447 92.8054 18.09C91.6961 18.8353 90.4654 19.208 89.1134 19.208C87.8827 19.208 86.7561 18.9133 85.7334 18.324C84.7107 17.7173 83.896 16.9027 83.2894 15.88C82.7 14.8573 82.4054 13.7393 82.4054 12.526ZM92.1814 11.122C91.9214 10.5153 91.5054 10.03 90.9334 9.66599C90.3787 9.28466 89.7721 9.09399 89.1134 9.09399C88.3854 9.09399 87.7614 9.27599 87.2414 9.63999C86.7214 10.004 86.3227 10.498 86.0454 11.122H92.1814Z" fill="white"/>
<path d="M103.815 19.208C102.601 19.208 101.475 18.9133 100.435 18.324C99.4119 17.7173 98.5972 16.9027 97.9906 15.88C97.4012 14.84 97.1066 13.7133 97.1066 12.5C97.1066 11.2867 97.4012 10.1687 97.9906 9.14599C98.5972 8.10599 99.4119 7.29132 100.435 6.70199C101.475 6.09532 102.601 5.79199 103.815 5.79199C105.34 5.79199 106.692 6.25132 107.871 7.16999C109.067 8.07132 109.864 9.23265 110.263 10.654H106.675C106.38 10.1687 105.981 9.78732 105.479 9.50999C104.993 9.23266 104.447 9.09399 103.841 9.09399C102.887 9.09399 102.09 9.42332 101.449 10.082C100.807 10.7233 100.487 11.5293 100.487 12.5C100.487 13.4707 100.807 14.2853 101.449 14.944C102.09 15.5853 102.887 15.906 103.841 15.906C104.413 15.906 104.933 15.7847 105.401 15.542C105.869 15.282 106.259 14.9267 106.571 14.476H110.237C109.821 15.8627 109.023 16.998 107.845 17.882C106.666 18.766 105.323 19.208 103.815 19.208Z" fill="white"/>
<path d="M117.404 5.79199C119.137 5.79199 120.524 6.32932 121.564 7.40399C122.604 8.46132 123.124 10.0473 123.124 12.162V19H119.744V12.162C119.744 11.1047 119.553 10.3333 119.172 9.84799C118.808 9.34532 118.218 9.09399 117.404 9.09399C116.589 9.09399 115.991 9.34532 115.61 9.84799C115.246 10.3333 115.064 11.1047 115.064 12.162V19H111.684V0.799988H115.064V6.44199C115.705 6.00866 116.485 5.79199 117.404 5.79199Z" fill="white"/>
<path d="M136.378 12.162C136.378 10.0473 135.858 8.46132 134.818 7.40399C133.778 6.32932 132.391 5.79199 130.658 5.79199C128.924 5.79199 127.538 6.32932 126.498 7.40399C125.458 8.46132 124.938 10.0473 124.938 12.162V19H128.318V12.162C128.318 11.1047 128.5 10.3333 128.864 9.84799C129.245 9.34532 129.843 9.09399 130.658 9.09399C131.472 9.09399 132.062 9.34532 132.426 9.84799C132.807 10.3333 132.998 11.1047 132.998 12.162V19H136.378V12.162Z" fill="white"/>
<path d="M144.516 5.79199C145.729 5.79199 146.847 6.09532 147.87 6.70199C148.91 7.29132 149.724 8.10599 150.314 9.14599C150.92 10.1687 151.224 11.2867 151.224 12.5C151.224 13.7133 150.92 14.84 150.314 15.88C149.724 16.9027 148.91 17.7173 147.87 18.324C146.847 18.9133 145.729 19.208 144.516 19.208C143.302 19.208 142.176 18.9133 141.136 18.324C140.113 17.7173 139.298 16.9027 138.692 15.88C138.102 14.84 137.808 13.7133 137.808 12.5C137.808 11.2867 138.102 10.1687 138.692 9.14599C139.298 8.10599 140.113 7.29132 141.136 6.70199C142.176 6.09532 143.302 5.79199 144.516 5.79199ZM144.542 9.09399C143.588 9.09399 142.791 9.42332 142.15 10.082C141.508 10.7233 141.188 11.5293 141.188 12.5C141.188 13.4707 141.508 14.2853 142.15 14.944C142.791 15.5853 143.588 15.906 144.542 15.906C145.495 15.906 146.284 15.5853 146.908 14.944C147.532 14.2853 147.844 13.4707 147.844 12.5C147.844 11.5293 147.532 10.7233 146.908 10.082C146.284 9.42332 145.495 9.09399 144.542 9.09399Z" fill="white"/>
<path d="M152.664 19V0.799988H156.044V19H152.664Z" fill="white"/>
<path d="M164.193 5.79199C165.407 5.79199 166.525 6.09532 167.547 6.70199C168.587 7.29132 169.402 8.10599 169.991 9.14599C170.598 10.1687 170.901 11.2867 170.901 12.5C170.901 13.7133 170.598 14.84 169.991 15.88C169.402 16.9027 168.587 17.7173 167.547 18.324C166.525 18.9133 165.407 19.208 164.193 19.208C162.98 19.208 161.853 18.9133 160.813 18.324C159.791 17.7173 158.976 16.9027 158.369 15.88C157.78 14.84 157.485 13.7133 157.485 12.5C157.485 11.2867 157.78 10.1687 158.369 9.14599C158.976 8.10599 159.791 7.29132 160.813 6.70199C161.853 6.09532 162.98 5.79199 164.193 5.79199ZM164.219 9.09399C163.266 9.09399 162.469 9.42332 161.827 10.082C161.186 10.7233 160.865 11.5293 160.865 12.5C160.865 13.4707 161.186 14.2853 161.827 14.944C162.469 15.5853 163.266 15.906 164.219 15.906C165.173 15.906 165.961 15.5853 166.585 14.944C167.209 14.2853 167.521 13.4707 167.521 12.5C167.521 11.5293 167.209 10.7233 166.585 10.082C165.961 9.42332 165.173 9.09399 164.219 9.09399Z" fill="white"/>
<path d="M178.92 24.2C177.568 24.2 176.337 23.8273 175.228 23.082C174.119 22.354 173.304 21.3833 172.784 20.17H176.892C177.221 20.43 177.542 20.612 177.854 20.716C178.183 20.8373 178.539 20.898 178.92 20.898C179.821 20.898 180.584 20.6727 181.208 20.222C181.849 19.7713 182.17 19.156 182.17 18.376V18.35C181.165 18.922 180.081 19.208 178.92 19.208C177.707 19.208 176.58 18.9133 175.54 18.324C174.517 17.7173 173.703 16.9027 173.096 15.88C172.507 14.84 172.212 13.7133 172.212 12.5C172.212 11.2867 172.507 10.1687 173.096 9.14599C173.703 8.10599 174.517 7.29132 175.54 6.70199C176.58 6.09532 177.707 5.79199 178.92 5.79199C180.133 5.79199 181.251 6.09532 182.274 6.70199C183.314 7.29132 184.129 8.10599 184.718 9.14599C185.325 10.1687 185.628 11.2867 185.628 12.5V17.492C185.628 18.7053 185.325 19.8233 184.718 20.846C184.129 21.886 183.314 22.7007 182.274 23.29C181.251 23.8967 180.133 24.2 178.92 24.2ZM178.946 15.906C179.899 15.906 180.688 15.5853 181.312 14.944C181.936 14.2853 182.248 13.4707 182.248 12.5C182.248 11.5293 181.936 10.7233 181.312 10.082C180.688 9.42332 179.899 9.09399 178.946 9.09399C177.993 9.09399 177.195 9.42332 176.554 10.082C175.913 10.7233 175.592 11.5293 175.592 12.5C175.592 13.4707 175.913 14.2853 176.554 14.944C177.195 15.5853 177.993 15.906 178.946 15.906Z" fill="white"/>
<path d="M192.916 24.2C191.581 24.2 190.42 23.8187 189.432 23.056C188.461 22.2933 187.742 21.262 187.274 19.962H191.044C191.304 20.274 191.564 20.508 191.824 20.664C192.101 20.82 192.465 20.898 192.916 20.898C193.696 20.898 194.276 20.7073 194.658 20.326C195.039 19.962 195.23 19.4593 195.23 18.818V18.74C194.484 19.052 193.713 19.208 192.916 19.208C191.182 19.208 189.796 18.6793 188.756 17.622C187.716 16.5473 187.196 14.9527 187.196 12.838V5.99999H190.576V12.838C190.576 13.8953 190.758 14.6753 191.122 15.178C191.503 15.6633 192.101 15.906 192.916 15.906C193.73 15.906 194.32 15.6633 194.684 15.178C195.065 14.6753 195.256 13.8953 195.256 12.838V5.99999H198.636V18.35C198.636 19.442 198.384 20.43 197.882 21.314C197.396 22.2153 196.72 22.9173 195.854 23.42C194.987 23.94 194.008 24.2 192.916 24.2Z" fill="white"/>
</svg>
