<svg width="18" height="18" viewBox="0 0 18 18" fill="none" xmlns="http://www.w3.org/2000/svg">
<path fill-rule="evenodd" clip-rule="evenodd" d="M9 5C7.89543 5 7 5.89543 7 7C7 8.10457 7.89543 9 9 9C10.1046 9 11 8.10457 11 7C11 5.89543 10.1046 5 9 5ZM6 7C6 5.34315 7.34315 4 9 4C10.6569 4 12 5.34315 12 7C12 8.65685 10.6569 10 9 10C7.34315 10 6 8.65685 6 7Z" fill="#CC0000"/>
<path fill-rule="evenodd" clip-rule="evenodd" d="M5.80643 11.9225C6.76266 11.3201 7.86981 11.0004 9 11.0004C10.1302 11.0004 11.2373 11.3201 12.1936 11.9225C13.1498 12.525 13.9161 13.3856 14.404 14.4051C14.5232 14.6542 14.4179 14.9528 14.1688 15.072C13.9198 15.1912 13.6212 15.0859 13.502 14.8368C13.0955 13.9875 12.4571 13.2705 11.6605 12.7686C10.8639 12.2667 9.94155 12.0004 9 12.0004C8.05845 12.0004 7.13611 12.2667 6.33949 12.7686C5.54287 13.2705 4.90447 13.9875 4.49801 14.8368C4.3788 15.0859 4.08024 15.1912 3.83115 15.072C3.58207 14.9528 3.47678 14.6542 3.59599 14.4051C4.08388 13.3856 4.8502 12.525 5.80643 11.9225Z" fill="#CC0000"/>
<path fill-rule="evenodd" clip-rule="evenodd" d="M9 2C5.13401 2 2 5.13401 2 9C2 12.866 5.13401 16 9 16C12.866 16 16 12.866 16 9C16 5.13401 12.866 2 9 2ZM0 9C0 4.02944 4.02944 0 9 0C13.9706 0 18 4.02944 18 9C18 13.9706 13.9706 18 9 18C4.02944 18 0 13.9706 0 9Z" fill="#CC0000"/>
</svg>
