<svg width="14" height="17" viewBox="0 0 14 17" fill="none" xmlns="http://www.w3.org/2000/svg">
<path d="M7 9C8.10457 9 9 8.10457 9 7C9 5.89543 8.10457 5 7 5C5.89543 5 5 5.89543 5 7C5 8.10457 5.89543 9 7 9Z" fill="#CC0000"/>
<path d="M6.3 15.7C6.2 15.6 2.1 12 2.1 11.9C0.7 10.7 0 8.9 0 7C0 3.1 3.1 0 7 0C10.9 0 14 3.1 14 7C14 8.9 13.3 10.7 11.9 12C11.8 12.1 7.8 15.7 7.7 15.8C7.3 16.1 6.7 16.1 6.3 15.7ZM3.6 10.7L7 13.7L10.4 10.7C11.4 9.7 12 8.5 12 7.1C12 4.3 9.8 2.1 7 2.1C4.2 2.1 2 4.2 2 7C2 8.4 2.6 9.7 3.6 10.7C3.6 10.6 3.6 10.6 3.6 10.7Z" fill="#CC0000"/>
</svg>
