<svg width="24" height="24" viewBox="0 0 24 24" fill="none" xmlns="http://www.w3.org/2000/svg">
<path d="M12 13C13.1046 13 14 12.1046 14 11C14 9.89543 13.1046 9 12 9C10.8954 9 10 9.89543 10 11C10 12.1046 10.8954 13 12 13Z" fill="#CC0000"/>
<path d="M11.3 19.7C11.2 19.6 7.1 16 7.1 15.9C5.7 14.7 5 12.9 5 11C5 7.1 8.1 4 12 4C15.9 4 19 7.1 19 11C19 12.9 18.3 14.7 16.9 16C16.8 16.1 12.8 19.7 12.7 19.8C12.3 20.1 11.7 20.1 11.3 19.7ZM8.6 14.7L12 17.7L15.4 14.7C16.4 13.7 17 12.5 17 11.1C17 8.3 14.8 6.1 12 6.1C9.2 6.1 7 8.2 7 11C7 12.4 7.6 13.7 8.6 14.7C8.6 14.6 8.6 14.6 8.6 14.7Z" fill="#CC0000"/>
</svg>
