<svg width="18" height="18" viewBox="0 0 18 18" fill="none" xmlns="http://www.w3.org/2000/svg">
<path fill-rule="evenodd" clip-rule="evenodd" d="M9 16C12.866 16 16 12.866 16 9C16 5.13401 12.866 2 9 2C5.13401 2 2 5.13401 2 9C2 12.866 5.13401 16 9 16ZM18 9C18 13.9706 13.9706 18 9 18C4.02944 18 0 13.9706 0 9C0 4.02944 4.02944 0 9 0C13.9706 0 18 4.02944 18 9ZM9 7C9.55228 7 10 6.55228 10 6C10 5.44772 9.55228 5 9 5C8.44771 5 8 5.44772 8 6C8 6.55228 8.44771 7 9 7ZM9.5 8.5C9.5 8.22386 9.27614 8 9 8C8.72386 8 8.5 8.22386 8.5 8.5V13.5C8.5 13.7761 8.72386 14 9 14C9.27614 14 9.5 13.7761 9.5 13.5V8.5Z" fill="#CC0000"/>
</svg>
