<svg width="17" height="17" viewBox="0 0 17 17" fill="none" xmlns="http://www.w3.org/2000/svg">
<path d="M8.14891 5.25299C6.97468 4.88398 5.71062 4.91951 4.55897 5.3539C3.40733 5.78828 2.43467 6.59641 1.79664 7.64897C1.15861 8.70154 0.892085 9.9377 1.03971 11.1597C1.18734 12.3816 1.74058 13.5187 2.61092 14.3891C3.48126 15.2594 4.61838 15.8127 5.84034 15.9603C7.0623 16.1079 8.29846 15.8414 9.35103 15.2034C10.4036 14.5653 11.2117 13.5927 11.6461 12.441C12.0805 11.2894 12.116 10.0253 11.747 8.85109" stroke="#CC0000" stroke-width="2" stroke-linecap="round" stroke-linejoin="round"/>
<path d="M10.5 2.5L12.5 0.5L13.5 3.5L16.5 4.5L14.5 6.5L11.5 5.5L10.5 2.5Z" stroke="#CC0000" stroke-linecap="round" stroke-linejoin="round"/>
<path d="M6.5 10.5L15.5 1.5" stroke="#CC0000" stroke-linecap="round" stroke-linejoin="round"/>
</svg>
