<svg width="24" height="24" viewBox="0 0 24 24" fill="none" xmlns="http://www.w3.org/2000/svg">
<path d="M11.1489 9.25299C9.97468 8.88398 8.71062 8.91951 7.55897 9.3539C6.40733 9.78828 5.43467 10.5964 4.79664 11.649C4.15861 12.7015 3.89209 13.9377 4.03971 15.1597C4.18734 16.3816 4.74058 17.5187 5.61092 18.3891C6.48126 19.2594 7.61838 19.8127 8.84034 19.9603C10.0623 20.1079 11.2985 19.8414 12.351 19.2034C13.4036 18.5653 14.2117 17.5927 14.6461 16.441C15.0805 15.2894 15.116 14.0253 14.747 12.8511" stroke="#CC0000" stroke-width="2" stroke-linecap="round" stroke-linejoin="round"/>
<path d="M13.5 6.5L15.5 4.5L16.5 7.5L19.5 8.5L17.5 10.5L14.5 9.5L13.5 6.5Z" stroke="#CC0000" stroke-linecap="round" stroke-linejoin="round"/>
<path d="M9.5 14.5L18.5 5.5" stroke="#CC0000" stroke-linecap="round" stroke-linejoin="round"/>
</svg>
