<svg width="24" height="24" viewBox="0 0 24 24" fill="none" xmlns="http://www.w3.org/2000/svg">
<path fill-rule="evenodd" clip-rule="evenodd" d="M7.95288 4.06331C8.87075 3.82478 9.86214 4.30261 10.2473 5.1693L11.5475 8.0973C11.5475 8.09739 11.5475 8.0972 11.5475 8.0973C11.9044 8.9007 11.6695 9.87479 10.9867 10.4275L10.6503 10.7067C11.3749 11.7551 12.2451 12.6257 13.2931 13.3503L13.573 13.0127C14.1263 12.3313 15.099 12.0971 15.9019 12.4531L18.8305 13.7535C19.6974 14.1387 20.1755 15.1306 19.9366 16.0487L19.2946 18.5224C19.0465 19.4747 18.0886 20.116 17.1137 19.9815L17.1114 19.9811C10.3883 19.0371 4.96284 13.6118 4.01882 6.88864L4.01838 6.88554C3.8847 5.91133 4.52394 4.95457 5.47512 4.70517L5.47797 4.70442L7.95288 4.06331ZM8.43036 6.00563L6.00305 6.63443C6.83146 12.4543 11.5448 17.1684 17.3647 17.9971L17.9944 15.5706L15.1116 14.2905L14.2698 15.3057C13.9568 15.6832 13.4163 15.7781 12.9935 15.5296C11.079 14.4048 9.5959 12.9207 8.47128 11.0066C7.91613 10.0617 9.10321 9.39158 9.71022 8.88782L8.43036 6.00563ZM9.71986 8.90953C9.7199 8.90962 9.71982 8.90944 9.71986 8.90953V8.90953Z" fill="#CC0000"/>
</svg>
