<svg width="16" height="16" viewBox="0 0 16 16" fill="none" xmlns="http://www.w3.org/2000/svg">
<path fill-rule="evenodd" clip-rule="evenodd" d="M3.95288 0.0632491C4.87075 -0.175283 5.86214 0.302549 6.2473 1.16924L7.5475 4.09723C7.54754 4.09733 7.54746 4.09714 7.5475 4.09723C7.90439 4.90064 7.66953 5.87473 6.98673 6.42741L6.65029 6.70663C7.37489 7.755 8.24507 8.62562 9.29307 9.35029L9.57299 9.01267C10.1263 8.33123 11.099 8.09701 11.9019 8.45302L14.8305 9.75344C15.6974 10.1387 16.1755 11.1306 15.9366 12.0487L15.2946 14.5224C15.0465 15.4747 14.0886 16.1159 13.1137 15.9814L13.1114 15.9811C6.3883 15.0371 0.962838 9.6117 0.0188193 2.88858L0.0183838 2.88548C-0.115299 1.91127 0.523941 0.954505 1.47512 0.705111L1.47797 0.704364L3.95288 0.0632491ZM4.43036 2.00557L2.00305 2.63436C2.83146 8.45428 7.54482 13.1683 13.3647 13.997L13.9944 11.5705L11.1116 10.2904L10.2698 11.3057C9.95684 11.6832 9.41628 11.778 8.99347 11.5296C7.07895 10.4047 5.5959 8.92064 4.47128 7.00652C3.91613 6.06166 5.10321 5.39152 5.71022 4.88776L4.43036 2.00557ZM5.71986 4.90947C5.7199 4.90956 5.71982 4.90938 5.71986 4.90947V4.90947Z" fill="#CC0000"/>
</svg>
