<svg width="24" height="24" viewBox="0 0 24 24" fill="none" xmlns="http://www.w3.org/2000/svg">
<path d="M11.7071 6.70711C12.0976 6.31658 12.0976 5.68342 11.7071 5.29289C11.3166 4.90237 10.6834 4.90237 10.2929 5.29289L11.7071 6.70711ZM5.70708 11.2929L6.41418 12L6.41418 12L5.70708 11.2929ZM5.70708 12.7071L6.41418 12L6.41418 12L5.70708 12.7071ZM10.2929 18.7071C10.6834 19.0976 11.3166 19.0976 11.7071 18.7071C12.0976 18.3166 12.0976 17.6834 11.7071 17.2929L10.2929 18.7071ZM5.99997 11C5.44769 11 4.99997 11.4477 4.99997 12C4.99997 12.5523 5.44769 13 5.99997 13L5.99997 11ZM19 13C19.5523 13 20 12.5523 20 12C20 11.4477 19.5523 11 19 11V13ZM10.2929 5.29289L4.99997 10.5858L6.41418 12L11.7071 6.70711L10.2929 5.29289ZM4.99997 13.4142L10.2929 18.7071L11.7071 17.2929L6.41418 12L4.99997 13.4142ZM4.99997 10.5858C4.21892 11.3668 4.21892 12.6332 4.99997 13.4142L6.41418 12V12L4.99997 10.5858ZM5.99997 13L19 13V11L5.99997 11L5.99997 13Z" fill="white"/>
</svg>
