<svg width="24" height="24" viewBox="0 0 24 24" fill="none" xmlns="http://www.w3.org/2000/svg">
<path fill-rule="evenodd" clip-rule="evenodd" d="M9.93785 6.36551C11.1511 5.92147 12.4753 5.88091 13.7135 6.24986C14.9516 6.61881 16.0376 7.37757 16.8099 8.41328C17.5822 9.44891 17.9996 10.7064 18 11.9983V13.398C18 13.6279 17.9087 13.8483 17.7462 14.0108C17.5836 14.1734 17.3632 14.2647 17.1333 14.2647C17.0012 14.2647 16.7948 14.2354 16.5898 14.17C16.4912 14.1385 16.408 14.1033 16.3444 14.0693C16.2804 14.035 16.2552 14.012 16.2538 14.0108C16.0913 13.8483 16 13.6279 16 13.398L16 12L16 9C16 8.44772 15.5523 8 15 8C14.5946 8 14.2456 8.2412 14.0886 8.58791C13.4807 8.21501 12.7654 8 12 8C9.79086 8 8 9.79086 8 12C8 14.2091 9.79086 16 12 16C12.9682 16 13.856 15.656 14.5479 15.0836C14.6355 15.2041 14.733 15.3184 14.8396 15.425C15.1755 15.7609 15.6201 15.9598 15.9815 16.0752C16.3585 16.1956 16.7704 16.2647 17.1333 16.2647C17.8936 16.2647 18.6228 15.9626 19.1604 15.425C19.698 14.8874 20 14.1583 20 13.398V11.9977C19.9995 10.2751 19.443 8.59865 18.4132 7.21771C17.3835 5.83676 15.9355 4.82509 14.2846 4.33315C12.6337 3.84121 10.8681 3.89529 9.25046 4.48734C7.63278 5.07939 6.24941 6.17779 5.3061 7.61917C4.36279 9.06055 3.90993 10.7679 4.01486 12.4873C4.1198 14.2068 4.77693 15.8464 5.88853 17.1623C7.00012 18.4783 8.5068 19.4003 10.1845 19.7913C11.8621 20.1822 13.6212 20.0212 15.2 19.3321C15.7062 19.1112 15.9374 18.5218 15.7165 18.0156C15.4956 17.5094 14.9062 17.2782 14.4 17.4991C13.2159 18.0159 11.8966 18.1366 10.6384 17.8434C9.3801 17.5502 8.25009 16.8587 7.4164 15.8718C6.5827 14.8848 6.08985 13.6551 6.01115 12.3655C5.93245 11.0759 6.27209 9.79541 6.97958 8.71438C7.68706 7.63334 8.72459 6.80955 9.93785 6.36551ZM14 12C14 10.8954 13.1046 10 12 10C10.8954 10 10 10.8954 10 12C10 13.1046 10.8954 14 12 14C13.1046 14 14 13.1046 14 12Z" fill="#CC0000"/>
</svg>
