<svg width="16" height="16" viewBox="0 0 16 16" fill="none" xmlns="http://www.w3.org/2000/svg">
<path fill-rule="evenodd" clip-rule="evenodd" d="M5.93785 2.36551C7.15111 1.92147 8.47529 1.88091 9.71345 2.24986C10.9516 2.61881 12.0376 3.37757 12.8099 4.41328C13.5822 5.44891 13.9996 6.70643 14 7.99829V9.398C14 9.62786 13.9087 9.8483 13.7462 10.0108C13.5836 10.1734 13.3632 10.2647 13.1333 10.2647C13.0012 10.2647 12.7948 10.2354 12.5898 10.17C12.4912 10.1385 12.408 10.1033 12.3444 10.0693C12.2804 10.035 12.2552 10.012 12.2538 10.0108C12.0913 9.8483 12 9.62786 12 9.398L12 8L12 5C12 4.44772 11.5523 4 11 4C10.5946 4 10.2456 4.2412 10.0886 4.58791C9.48067 4.21501 8.76544 4 8 4C5.79086 4 4 5.79086 4 8C4 10.2091 5.79086 12 8 12C8.96817 12 9.85599 11.656 10.5479 11.0836C10.6355 11.2041 10.733 11.3184 10.8396 11.425C11.1755 11.7609 11.6201 11.9598 11.9815 12.0752C12.3585 12.1956 12.7704 12.2647 13.1333 12.2647C13.8936 12.2647 14.6228 11.9626 15.1604 11.425C15.698 10.8874 16 10.1583 16 9.398V7.99772C15.9995 6.2751 15.443 4.59865 14.4132 3.21771C13.3835 1.83676 11.9355 0.825086 10.2846 0.333149C8.63372 -0.158787 6.86814 -0.104708 5.25046 0.487343C3.63278 1.07939 2.24941 2.17779 1.3061 3.61917C0.362789 5.06055 -0.0900749 6.76792 0.0148628 8.48734C0.119801 10.2068 0.776934 11.8464 1.88853 13.1623C3.00012 14.4783 4.5068 15.4003 6.18447 15.7913C7.86215 16.1822 9.6212 16.0212 11.2 15.3321C11.7062 15.1112 11.9374 14.5218 11.7165 14.0156C11.4956 13.5094 10.9062 13.2782 10.4 13.4991C9.2159 14.0159 7.89661 14.1366 6.63836 13.8434C5.3801 13.5502 4.25009 12.8587 3.4164 11.8718C2.5827 10.8848 2.08985 9.65507 2.01115 8.3655C1.93245 7.07594 2.27209 5.79541 2.97958 4.71438C3.68706 3.63334 4.72459 2.80955 5.93785 2.36551ZM10 8C10 6.89543 9.10457 6 8 6C6.89543 6 6 6.89543 6 8C6 9.10457 6.89543 10 8 10C9.10457 10 10 9.10457 10 8Z" fill="#CC0000"/>
</svg>
