<svg width="24" height="24" viewBox="0 0 24 24" fill="none" xmlns="http://www.w3.org/2000/svg">
<path d="M11.7072 6.70711C12.0977 6.31658 12.0977 5.68342 11.7072 5.29289C11.3167 4.90237 10.6835 4.90237 10.293 5.29289L11.7072 6.70711ZM5.7072 11.2929L6.41431 12L6.41431 12L5.7072 11.2929ZM5.7072 12.7071L6.41431 12L6.41431 12L5.7072 12.7071ZM10.293 18.7071C10.6835 19.0976 11.3167 19.0976 11.7072 18.7071C12.0977 18.3166 12.0977 17.6834 11.7072 17.2929L10.293 18.7071ZM6.00009 11C5.44781 11 5.00009 11.4477 5.00009 12C5.00009 12.5523 5.44781 13 6.00009 13L6.00009 11ZM19.0001 13C19.5524 13 20.0001 12.5523 20.0001 12C20.0001 11.4477 19.5524 11 19.0001 11V13ZM10.293 5.29289L5.00009 10.5858L6.41431 12L11.7072 6.70711L10.293 5.29289ZM5.00009 13.4142L10.293 18.7071L11.7072 17.2929L6.41431 12L5.00009 13.4142ZM5.00009 10.5858C4.21904 11.3668 4.21904 12.6332 5.00009 13.4142L6.41431 12V12L5.00009 10.5858ZM6.00009 13L19.0001 13V11L6.00009 11L6.00009 13Z" fill="black"/>
</svg>
