<svg width="17" height="16" viewBox="0 0 17 16" fill="none" xmlns="http://www.w3.org/2000/svg">
<path d="M6.5 7C8.15685 7 9.5 5.65685 9.5 4C9.5 2.34315 8.15685 1 6.5 1C4.84315 1 3.5 2.34315 3.5 4C3.5 5.65685 4.84315 7 6.5 7Z" stroke="#CC0000" stroke-width="2" stroke-linecap="round" stroke-linejoin="round"/>
<path d="M13.5 6.5C14.6046 6.5 15.5 5.60457 15.5 4.5C15.5 3.39543 14.6046 2.5 13.5 2.5C12.3954 2.5 11.5 3.39543 11.5 4.5C11.5 5.60457 12.3954 6.5 13.5 6.5Z" stroke="#CC0000" stroke-linecap="round" stroke-linejoin="round"/>
<path d="M6.5 10C5.17392 10 3.90215 10.5268 2.96447 11.4645C2.02678 12.4021 1.5 13.6739 1.5 15H11.5C11.5 13.6739 10.9732 12.4021 10.0355 11.4645C9.09785 10.5268 7.82608 10 6.5 10V10Z" stroke="#CC0000" stroke-width="2" stroke-linecap="round" stroke-linejoin="round"/>
<path d="M11.841 9C12.3324 8.67303 12.9097 8.49903 13.5 8.5C14.2957 8.5 15.0587 8.81607 15.6213 9.37868C16.1839 9.94129 16.5 10.7044 16.5 11.5V12.5H13.5" stroke="#CC0000" stroke-linecap="round" stroke-linejoin="round"/>
</svg>
