<svg width="24" height="24" viewBox="0 0 24 24" fill="none" xmlns="http://www.w3.org/2000/svg">
<path d="M9.5 11C11.1569 11 12.5 9.65685 12.5 8C12.5 6.34315 11.1569 5 9.5 5C7.84315 5 6.5 6.34315 6.5 8C6.5 9.65685 7.84315 11 9.5 11Z" stroke="#CC0000" stroke-width="2" stroke-linecap="round" stroke-linejoin="round"/>
<path d="M16.5 10.5C17.6046 10.5 18.5 9.60457 18.5 8.5C18.5 7.39543 17.6046 6.5 16.5 6.5C15.3954 6.5 14.5 7.39543 14.5 8.5C14.5 9.60457 15.3954 10.5 16.5 10.5Z" stroke="#CC0000" stroke-linecap="round" stroke-linejoin="round"/>
<path d="M9.5 14C8.17392 14 6.90215 14.5268 5.96447 15.4645C5.02678 16.4021 4.5 17.6739 4.5 19H14.5C14.5 17.6739 13.9732 16.4021 13.0355 15.4645C12.0979 14.5268 10.8261 14 9.5 14V14Z" stroke="#CC0000" stroke-width="2" stroke-linecap="round" stroke-linejoin="round"/>
<path d="M14.8411 13C15.3325 12.673 15.9098 12.499 16.5001 12.5C17.2957 12.5 18.0588 12.8161 18.6214 13.3787C19.184 13.9413 19.5001 14.7044 19.5001 15.5V16.5H16.5001" stroke="#CC0000" stroke-linecap="round" stroke-linejoin="round"/>
</svg>
