<svg width="18" height="16" viewBox="0 0 18 16" fill="none" xmlns="http://www.w3.org/2000/svg">
<path fill-rule="evenodd" clip-rule="evenodd" d="M6 5.5C6 5.22386 6.22386 5 6.5 5H11.5C11.7761 5 12 5.22386 12 5.5C12 5.77614 11.7761 6 11.5 6H6.5C6.22386 6 6 5.77614 6 5.5Z" fill="#CC0000"/>
<path fill-rule="evenodd" clip-rule="evenodd" d="M6 10.5C6 10.2239 6.22386 10 6.5 10H11.5C11.7761 10 12 10.2239 12 10.5C12 10.7761 11.7761 11 11.5 11H6.5C6.22386 11 6 10.7761 6 10.5Z" fill="#CC0000"/>
<path fill-rule="evenodd" clip-rule="evenodd" d="M0 2C0 0.895715 0.895715 0 2 0H16C17.1043 0 18 0.895715 18 2V6.5C18 7.05228 17.5523 7.5 17 7.5C16.4473 7.5 16 7.94728 16 8.5C16 9.05272 16.4473 9.5 17 9.5C17.5523 9.5 18 9.94771 18 10.5V14C18 15.1043 17.1043 16 16 16H2C0.895715 16 0 15.1043 0 14V10C0 9.44771 0.447715 9 1 9C1.55272 9 2 8.55272 2 8C2 7.44728 1.55272 7 1 7C0.447715 7 0 6.55228 0 6V2ZM16 2H2V5.1706C3.16538 5.58229 4 6.69338 4 8C4 9.30662 3.16538 10.4177 2 10.8294V14H16V11.3294C14.8346 10.9177 14 9.80662 14 8.5C14 7.19338 14.8346 6.08229 16 5.6706V2Z" fill="#CC0000"/>
</svg>
