<svg width="24" height="24" viewBox="0 0 24 24" fill="none" xmlns="http://www.w3.org/2000/svg">
<path fill-rule="evenodd" clip-rule="evenodd" d="M8 9.5C8 9.22386 8.22386 9 8.5 9H15.5C15.7761 9 16 9.22386 16 9.5C16 9.77614 15.7761 10 15.5 10H8.5C8.22386 10 8 9.77614 8 9.5Z" fill="#CC0000"/>
<path fill-rule="evenodd" clip-rule="evenodd" d="M8 12.5C8 12.2239 8.22386 12 8.5 12H15.5C15.7761 12 16 12.2239 16 12.5C16 12.7761 15.7761 13 15.5 13H8.5C8.22386 13 8 12.7761 8 12.5Z" fill="#CC0000"/>
<path fill-rule="evenodd" clip-rule="evenodd" d="M3 10.9333C3 6.42214 7.16875 3 12 3C16.8313 3 21 6.42214 21 10.9333C21 12.9086 20.1786 14.6893 18.8667 16.0539V20C18.8667 20.352 18.6816 20.6781 18.3794 20.8585C18.0772 21.039 17.7024 21.0473 17.3925 20.8804L13.4587 18.7618C12.9842 18.8303 12.4972 18.8667 12 18.8667C7.16875 18.8667 3 15.4445 3 10.9333ZM12 5C7.99499 5 5 7.78586 5 10.9333C5 14.0808 7.99499 16.8667 12 16.8667C12.4989 16.8667 12.9858 16.8211 13.4572 16.7363C13.6797 16.6963 13.9092 16.7329 14.1083 16.8401L16.8667 18.3256V15.6363C16.8667 15.3596 16.9813 15.0953 17.1832 14.9063C18.3292 13.8334 19 12.4389 19 10.9333C19 7.78586 16.005 5 12 5Z" fill="#CC0000"/>
</svg>
